<?xml version="1.0" encoding="UTF-8"?>
<svg xmlns="http://www.w3.org/2000/svg" xmlns:xlink="http://www.w3.org/1999/xlink" width="144px" height="133px" viewBox="0 0 143 133" version="1.1">
<g id="surface1">
<path style=" stroke:none;fill-rule:evenodd;fill:rgb(100%,100%,100%);fill-opacity:1;" d="M 140.398438 108.878906 L 134.875 112.464844 L 130.648438 115.070312 L 129.351562 116.050781 L 124.476562 109.855469 L 117.648438 98.121094 L 111.148438 88.667969 L 106.273438 81.820312 L 99.773438 75.628906 L 93.601562 71.0625 L 89.699219 68.457031 L 96.523438 63.890625 L 102.050781 59.328125 L 124.476562 43.355469 L 103.675781 19.886719 L 78 40.09375 L 74.425781 42.703125 L 72.476562 44.332031 L 71.175781 45.636719 L 71.175781 38.792969 L 75.398438 22.167969 L 77.023438 17.601562 L 80.601562 10.105469 L 84.824219 2.28125 L 81.898438 0 L 78.324219 4.890625 L 75.398438 10.429688 L 73.125 16.625 L 69.875 27.054688 L 66.625 44.007812 L 66.625 80.515625 L 65.976562 86.710938 L 63.375 94.859375 L 58.175781 101.378906 L 51.351562 106.269531 L 41.925781 111.8125 L 32.824219 115.722656 L 20.148438 121.917969 L 34.773438 110.179688 L 44.199219 101.378906 L 52 92.253906 L 55.898438 85.082031 L 56.550781 76.605469 L 55.898438 63.890625 L 56.226562 43.355469 L 58.5 28.359375 L 62.726562 16.625 L 68.25 6.195312 L 70.851562 2.28125 L 68.25 0.324219 L 58.175781 4.238281 L 47.449219 4.5625 L 40.949219 2.609375 L 30.875 0.652344 L 23.398438 0.652344 L 19.175781 1.304688 L 13.976562 3.910156 L 8.773438 8.800781 L 3.25 16.949219 L 0.976562 24.449219 L 0 28.359375 L 2.925781 28.6875 L 7.148438 21.839844 L 12.351562 16.949219 L 15.273438 14.996094 L 19.175781 14.34375 L 23.074219 14.34375 L 32.824219 15.648438 L 37.699219 15.648438 L 42.25 15.320312 L 46.476562 14.015625 L 51.023438 12.0625 L 55.898438 9.78125 L 59.800781 7.496094 L 60.449219 7.171875 L 61.101562 6.84375 L 54.601562 14.015625 L 48.425781 20.863281 L 43.226562 27.707031 L 40.949219 31.945312 L 39.976562 34.878906 L 39 38.792969 L 38.675781 41.398438 L 38.351562 45.636719 L 38.675781 50.199219 L 33.800781 47.59375 L 30.226562 46.289062 L 25.023438 45.636719 L 21.773438 45.964844 L 18.523438 46.941406 L 14.949219 49.222656 L 13 51.179688 L 11.050781 54.765625 L 9.75 57.371094 L 12.675781 58.351562 L 15.925781 55.742188 L 18.851562 54.4375 L 21.449219 54.113281 L 24.375 54.4375 L 27.625 55.089844 L 31.851562 57.699219 L 34.449219 59.980469 L 36.398438 61.9375 L 39 67.476562 L 39.648438 73.671875 L 39.976562 79.863281 L 34.125 76.929688 L 30.550781 75.628906 L 24.375 74.976562 L 19.824219 76.28125 L 17.550781 78.234375 L 14.625 81.820312 L 12.675781 85.082031 L 12.351562 85.734375 L 15.601562 87.363281 L 18.523438 84.753906 L 21.125 83.449219 L 22.101562 83.125 L 24.050781 83.449219 L 26.976562 84.429688 L 29.898438 86.710938 L 31.851562 89.644531 L 33.148438 93.882812 L 32.175781 99.097656 L 29.25 104.3125 L 25.675781 109.53125 L 21.449219 114.417969 L 8.449219 126.15625 L 4.550781 129.414062 L 6.175781 131.042969 L 7.148438 132.347656 L 7.148438 133 L 12.023438 131.042969 L 21.449219 127.785156 L 29.898438 125.503906 L 39.324219 124.199219 L 43.226562 123.871094 L 52.324219 124.199219 L 61.425781 125.828125 L 71.175781 128.761719 L 80.273438 132.675781 L 102.699219 107.246094 L 113.75 125.828125 L 117.324219 129.738281 L 121.550781 133 L 143 111.484375 Z M 71.175781 51.503906 L 92.625 33.902344 L 107.25 50.527344 L 70.851562 75.953125 Z M 88.074219 117.679688 L 74.75 112.136719 L 64.023438 110.179688 L 54.601562 109.203125 L 63.375 102.359375 L 67.601562 96.816406 L 69.550781 88.992188 L 70.851562 80.84375 L 77.023438 81.167969 L 83.851562 84.101562 L 89.699219 89.96875 L 96.851562 97.792969 L 100.425781 103.660156 Z M 88.074219 117.679688 "/>
</g>
</svg>
