<?xml version="1.0" encoding="UTF-8"?>
<svg xmlns="http://www.w3.org/2000/svg" xmlns:xlink="http://www.w3.org/1999/xlink" width="181px" height="168px" viewBox="0 0 181 168" version="1.1">
<g id="surface1">
<path style=" stroke:none;fill-rule:evenodd;fill:rgb(100%,100%,100%);fill-opacity:1;" d="M 177.710938 137.53125 L 170.714844 142.058594 L 165.367188 145.351562 L 163.722656 146.589844 L 157.550781 138.765625 L 148.914062 123.941406 L 140.6875 112 L 134.515625 103.351562 L 126.289062 95.53125 L 118.472656 89.765625 L 113.535156 86.46875 L 122.175781 80.707031 L 129.167969 74.941406 L 157.550781 54.765625 L 131.226562 25.117188 L 98.726562 50.648438 L 94.203125 53.941406 L 91.734375 56 L 90.089844 57.648438 L 90.089844 49 L 95.4375 28 L 97.492188 22.234375 L 102.019531 12.765625 L 107.367188 2.882812 L 103.664062 0 L 99.136719 6.175781 L 95.4375 13.175781 L 92.558594 21 L 88.441406 34.175781 L 84.328125 55.589844 L 84.328125 101.707031 L 83.507812 109.53125 L 80.214844 119.824219 L 73.632812 128.058594 L 64.996094 134.234375 L 53.066406 141.234375 L 41.546875 146.175781 L 25.503906 154 L 44.015625 139.175781 L 55.945312 128.058594 L 65.816406 116.53125 L 70.753906 107.46875 L 71.578125 96.765625 L 70.753906 80.707031 L 71.164062 54.765625 L 74.046875 35.824219 L 79.394531 21 L 86.386719 7.824219 L 89.675781 2.882812 L 86.386719 0.410156 L 73.632812 5.351562 L 60.058594 5.765625 L 51.832031 3.292969 L 39.078125 0.824219 L 29.617188 0.824219 L 24.269531 1.648438 L 17.6875 4.941406 L 11.105469 11.117188 L 4.113281 21.410156 L 1.234375 30.882812 L 0 35.824219 L 3.703125 36.234375 L 9.050781 27.589844 L 15.632812 21.410156 L 19.335938 18.941406 L 24.269531 18.117188 L 29.207031 18.117188 L 35.378906 18.941406 L 41.546875 19.765625 L 47.71875 19.765625 L 53.476562 19.351562 L 58.824219 17.707031 L 64.585938 15.234375 L 70.753906 12.351562 L 75.691406 9.46875 L 76.511719 9.058594 L 77.335938 8.648438 L 69.109375 17.707031 L 61.292969 26.351562 L 54.710938 35 L 51.832031 40.351562 L 50.597656 44.058594 L 49.363281 49 L 48.953125 52.292969 L 48.539062 57.648438 L 48.953125 63.410156 L 42.78125 60.117188 L 38.257812 58.46875 L 31.675781 57.648438 L 27.5625 58.058594 L 23.449219 59.292969 L 18.921875 62.175781 L 16.453125 64.648438 L 13.988281 69.175781 L 12.339844 72.46875 L 16.042969 73.707031 L 20.15625 70.410156 L 23.859375 68.765625 L 27.148438 68.351562 L 30.851562 68.765625 L 34.964844 69.589844 L 40.3125 72.882812 L 43.605469 75.765625 L 46.074219 78.234375 L 49.363281 85.234375 L 50.1875 93.058594 L 50.597656 100.882812 L 43.191406 97.175781 L 38.667969 95.53125 L 30.851562 94.707031 L 25.09375 96.351562 L 22.214844 98.824219 L 18.511719 103.351562 L 16.042969 107.46875 L 15.632812 108.292969 L 19.746094 110.351562 L 23.449219 107.058594 L 26.738281 105.410156 L 27.972656 105 L 30.441406 105.410156 L 34.144531 106.648438 L 37.84375 109.53125 L 40.3125 113.234375 L 41.960938 118.589844 L 40.726562 125.175781 L 37.023438 131.765625 L 32.496094 138.351562 L 27.148438 144.53125 L 10.695312 159.351562 L 5.757812 163.46875 L 7.816406 165.53125 L 9.050781 167.175781 L 9.050781 168 L 15.21875 165.53125 L 27.148438 161.410156 L 37.84375 158.53125 L 49.773438 156.882812 L 54.710938 156.46875 L 66.230469 156.882812 L 77.746094 158.941406 L 90.089844 162.648438 L 101.605469 167.589844 L 129.992188 135.46875 L 143.976562 158.941406 L 148.503906 163.882812 L 153.851562 168 L 181 140.824219 Z M 90.089844 65.058594 L 117.238281 42.824219 L 135.75 63.824219 L 89.675781 95.941406 Z M 111.480469 148.648438 L 94.613281 141.648438 L 81.039062 139.175781 L 69.109375 137.941406 L 80.214844 129.292969 L 85.5625 122.292969 L 88.03125 112.410156 L 89.675781 102.117188 L 97.492188 102.53125 L 106.132812 106.234375 L 113.535156 113.648438 L 122.585938 123.53125 L 127.113281 130.941406 Z M 111.480469 148.648438 "/>
</g>
</svg>
