<?xml version="1.0" encoding="UTF-8"?>
<svg xmlns="http://www.w3.org/2000/svg" xmlns:xlink="http://www.w3.org/1999/xlink" width="72px" height="67px" viewBox="0 0 72 67" version="1.1">
<g id="surface1">
<path style=" stroke:none;fill-rule:evenodd;fill:rgb(100%,100%,100%);fill-opacity:1;" d="M 70.691406 54.847656 L 67.910156 56.65625 L 65.78125 57.96875 L 65.128906 58.460938 L 62.671875 55.339844 L 59.238281 49.429688 L 55.964844 44.667969 L 53.507812 41.21875 L 50.238281 38.097656 L 47.128906 35.800781 L 45.164062 34.484375 L 48.601562 32.1875 L 51.382812 29.886719 L 62.671875 21.839844 L 52.199219 10.015625 L 39.273438 20.199219 L 37.472656 21.511719 L 36.492188 22.332031 L 35.835938 22.988281 L 35.835938 19.542969 L 37.964844 11.167969 L 38.78125 8.867188 L 40.582031 5.089844 L 42.710938 1.148438 L 41.238281 0 L 39.4375 2.464844 L 37.964844 5.253906 L 36.816406 8.375 L 35.183594 13.628906 L 33.546875 22.167969 L 33.546875 40.5625 L 33.21875 43.679688 L 31.910156 47.785156 L 29.289062 51.070312 L 25.855469 53.535156 L 21.109375 56.324219 L 16.527344 58.296875 L 10.144531 61.417969 L 17.507812 55.503906 L 22.253906 51.070312 L 26.183594 46.472656 L 28.144531 42.859375 L 28.472656 38.589844 L 28.144531 32.1875 L 28.308594 21.839844 L 29.453125 14.285156 L 31.582031 8.375 L 34.363281 3.121094 L 35.671875 1.148438 L 34.363281 0.164062 L 29.289062 2.136719 L 23.890625 2.300781 L 20.617188 1.3125 L 15.546875 0.328125 L 11.78125 0.328125 L 9.65625 0.65625 L 7.035156 1.96875 L 4.417969 4.433594 L 1.636719 8.539062 L 0.492188 12.316406 L 0 14.285156 L 1.472656 14.449219 L 3.601562 11.003906 L 6.21875 8.539062 L 7.691406 7.554688 L 9.65625 7.226562 L 11.617188 7.226562 L 14.074219 7.554688 L 16.527344 7.882812 L 18.980469 7.882812 L 21.273438 7.71875 L 23.398438 7.0625 L 25.691406 6.074219 L 28.144531 4.925781 L 30.109375 3.777344 L 30.4375 3.613281 L 30.761719 3.449219 L 27.492188 7.0625 L 24.382812 10.511719 L 21.761719 13.957031 L 20.617188 16.09375 L 20.128906 17.570312 L 19.636719 19.542969 L 19.472656 20.855469 L 19.308594 22.988281 L 19.472656 25.289062 L 17.019531 23.976562 L 15.21875 23.320312 L 12.601562 22.988281 L 10.964844 23.15625 L 9.328125 23.648438 L 7.527344 24.796875 L 6.546875 25.78125 L 5.5625 27.589844 L 4.910156 28.902344 L 6.382812 29.394531 L 8.019531 28.082031 L 9.492188 27.425781 L 10.800781 27.261719 L 12.273438 27.425781 L 13.910156 27.753906 L 16.035156 29.066406 L 17.34375 30.214844 L 18.328125 31.199219 L 19.636719 33.992188 L 19.964844 37.113281 L 20.128906 40.234375 L 17.183594 38.753906 L 15.382812 38.097656 L 12.273438 37.769531 L 9.980469 38.425781 L 8.835938 39.410156 L 7.363281 41.21875 L 6.382812 42.859375 L 6.21875 43.1875 L 7.855469 44.011719 L 9.328125 42.695312 L 10.636719 42.039062 L 11.128906 41.875 L 12.109375 42.039062 L 13.582031 42.53125 L 15.054688 43.679688 L 16.035156 45.160156 L 16.691406 47.292969 L 16.199219 49.921875 L 14.726562 52.550781 L 12.925781 55.175781 L 10.800781 57.640625 L 4.253906 63.550781 L 2.289062 65.195312 L 3.109375 66.015625 L 3.601562 66.671875 L 3.601562 67 L 6.054688 66.015625 L 10.800781 64.371094 L 15.054688 63.222656 L 19.800781 62.566406 L 21.761719 62.402344 L 26.34375 62.566406 L 30.925781 63.386719 L 35.835938 64.863281 L 40.417969 66.835938 L 51.710938 54.027344 L 57.273438 63.386719 L 59.074219 65.359375 L 61.199219 67 L 72 56.160156 Z M 35.835938 25.945312 L 46.636719 17.078125 L 54 25.453125 L 35.671875 38.261719 Z M 44.34375 59.28125 L 37.636719 56.488281 L 32.238281 55.503906 L 27.492188 55.011719 L 31.910156 51.5625 L 34.035156 48.773438 L 35.019531 44.832031 L 35.671875 40.726562 L 38.78125 40.890625 L 42.21875 42.367188 L 45.164062 45.324219 L 48.761719 49.265625 L 50.5625 52.21875 Z M 44.34375 59.28125 "/>
</g>
</svg>
