<?xml version="1.0" encoding="UTF-8"?>
<svg xmlns="http://www.w3.org/2000/svg" xmlns:xlink="http://www.w3.org/1999/xlink" width="104px" height="96px" viewBox="0 0 103 96" version="1.1">
<g id="surface1">
<path style=" stroke:none;fill-rule:evenodd;fill:rgb(100%,100%,100%);fill-opacity:1;" d="M 101.128906 78.589844 L 97.148438 81.175781 L 94.105469 83.058594 L 93.167969 83.765625 L 89.65625 79.292969 L 84.742188 70.824219 L 80.058594 64 L 76.546875 59.058594 L 71.867188 54.589844 L 67.417969 51.292969 L 64.609375 49.410156 L 69.523438 46.117188 L 73.503906 42.824219 L 89.65625 31.292969 L 74.675781 14.351562 L 56.183594 28.941406 L 53.605469 30.824219 L 52.203125 32 L 51.265625 32.941406 L 51.265625 28 L 54.308594 16 L 55.480469 12.707031 L 58.054688 7.292969 L 61.097656 1.648438 L 58.992188 0 L 56.414062 3.53125 L 54.308594 7.53125 L 52.671875 12 L 50.328125 19.53125 L 47.988281 31.765625 L 47.988281 58.117188 L 47.519531 62.589844 L 45.648438 68.46875 L 41.902344 73.175781 L 36.988281 76.707031 L 30.199219 80.707031 L 23.644531 83.53125 L 14.511719 88 L 25.046875 79.53125 L 31.835938 73.175781 L 37.453125 66.589844 L 40.261719 61.410156 L 40.730469 55.292969 L 40.261719 46.117188 L 40.496094 31.292969 L 42.136719 20.46875 L 45.179688 12 L 49.160156 4.46875 L 51.03125 1.648438 L 49.160156 0.234375 L 41.902344 3.058594 L 34.175781 3.292969 L 29.496094 1.882812 L 22.238281 0.46875 L 16.855469 0.46875 L 13.8125 0.941406 L 10.066406 2.824219 L 6.320312 6.351562 L 2.339844 12.234375 L 0.703125 17.648438 L 0 20.46875 L 2.105469 20.707031 L 5.148438 15.765625 L 8.894531 12.234375 L 11.003906 10.824219 L 13.8125 10.351562 L 16.621094 10.351562 L 20.132812 10.824219 L 23.644531 11.292969 L 27.15625 11.292969 L 30.433594 11.058594 L 33.476562 10.117188 L 36.753906 8.707031 L 40.261719 7.058594 L 43.074219 5.410156 L 43.539062 5.175781 L 44.007812 4.941406 L 39.328125 10.117188 L 34.878906 15.058594 L 31.132812 20 L 29.496094 23.058594 L 28.792969 25.175781 L 28.089844 28 L 27.855469 29.882812 L 27.621094 32.941406 L 27.855469 36.234375 L 24.34375 34.351562 L 21.769531 33.410156 L 18.023438 32.941406 L 15.683594 33.175781 L 13.34375 33.882812 L 10.769531 35.53125 L 9.363281 36.941406 L 7.960938 39.53125 L 7.023438 41.410156 L 9.128906 42.117188 L 11.46875 40.234375 L 13.578125 39.292969 L 15.449219 39.058594 L 17.558594 39.292969 L 19.898438 39.765625 L 22.941406 41.648438 L 24.8125 43.292969 L 26.21875 44.707031 L 28.089844 48.707031 L 28.558594 53.175781 L 28.792969 57.648438 L 24.578125 55.53125 L 22.003906 54.589844 L 17.558594 54.117188 L 14.28125 55.058594 L 12.640625 56.46875 L 10.535156 59.058594 L 9.128906 61.410156 L 8.894531 61.882812 L 11.238281 63.058594 L 13.34375 61.175781 L 15.214844 60.234375 L 15.917969 60 L 17.324219 60.234375 L 19.429688 60.941406 L 21.535156 62.589844 L 22.941406 64.707031 L 23.878906 67.765625 L 23.175781 71.53125 L 21.066406 75.292969 L 18.492188 79.058594 L 15.449219 82.589844 L 6.085938 91.058594 L 3.277344 93.410156 L 4.449219 94.589844 L 5.148438 95.53125 L 5.148438 96 L 8.660156 94.589844 L 15.449219 92.234375 L 21.535156 90.589844 L 28.324219 89.648438 L 31.132812 89.410156 L 37.6875 89.648438 L 44.242188 90.824219 L 51.265625 92.941406 L 57.820312 95.765625 L 73.972656 77.410156 L 81.933594 90.824219 L 84.507812 93.648438 L 87.550781 96 L 103 80.46875 Z M 51.265625 37.175781 L 66.714844 24.46875 L 77.25 36.46875 L 51.03125 54.824219 Z M 63.4375 84.941406 L 53.839844 80.941406 L 46.117188 79.53125 L 39.328125 78.824219 L 45.648438 73.882812 L 48.691406 69.882812 L 50.09375 64.234375 L 51.03125 58.351562 L 55.480469 58.589844 L 60.394531 60.707031 L 64.609375 64.941406 L 69.757812 70.589844 L 72.335938 74.824219 Z M 63.4375 84.941406 "/>
</g>
</svg>
