<?xml version="1.0" encoding="UTF-8"?>
<svg xmlns="http://www.w3.org/2000/svg" xmlns:xlink="http://www.w3.org/1999/xlink" width="48px" height="48px" viewBox="0 0 48 44" version="1.1">
<g id="surface1">
<path style=" stroke:none;fill-rule:evenodd;fill:rgb(100%,100%,100%);fill-opacity:1;" d="M 47.128906 36.019531 L 45.273438 37.207031 L 43.855469 38.070312 L 43.417969 38.390625 L 41.78125 36.34375 L 39.492188 32.460938 L 37.308594 29.332031 L 35.671875 27.070312 L 33.492188 25.019531 L 31.417969 23.511719 L 30.109375 22.648438 L 32.398438 21.136719 L 34.253906 19.628906 L 41.78125 14.34375 L 34.800781 6.578125 L 26.183594 13.265625 L 24.980469 14.128906 L 24.328125 14.667969 L 23.890625 15.097656 L 23.890625 12.832031 L 25.308594 7.332031 L 25.855469 5.824219 L 27.054688 3.34375 L 28.472656 0.753906 L 27.492188 0 L 26.289062 1.617188 L 25.308594 3.449219 L 24.546875 5.5 L 23.453125 8.949219 L 22.363281 14.558594 L 22.363281 26.636719 L 22.144531 28.6875 L 21.273438 31.382812 L 19.527344 33.539062 L 17.238281 35.15625 L 14.074219 36.988281 L 11.019531 38.285156 L 6.761719 40.332031 L 11.671875 36.449219 L 14.835938 33.539062 L 17.453125 30.519531 L 18.761719 28.148438 L 18.980469 25.34375 L 18.761719 21.136719 L 18.871094 14.34375 L 19.636719 9.382812 L 21.054688 5.5 L 22.910156 2.050781 L 23.78125 0.753906 L 22.910156 0.109375 L 19.527344 1.402344 L 15.925781 1.511719 L 13.746094 0.863281 L 10.363281 0.214844 L 7.855469 0.214844 L 6.4375 0.429688 L 4.691406 1.292969 L 2.945312 2.910156 L 1.089844 5.609375 L 0.328125 8.089844 L 0 9.382812 L 0.980469 9.488281 L 2.398438 7.226562 L 4.144531 5.609375 L 5.128906 4.960938 L 6.4375 4.746094 L 7.746094 4.746094 L 11.019531 5.175781 L 12.65625 5.175781 L 14.183594 5.070312 L 15.601562 4.636719 L 17.128906 3.988281 L 18.761719 3.234375 L 20.074219 2.480469 L 20.289062 2.371094 L 20.507812 2.265625 L 18.328125 4.636719 L 16.253906 6.902344 L 14.507812 9.167969 L 13.746094 10.570312 L 13.417969 11.539062 L 13.089844 12.832031 L 12.980469 13.695312 L 12.871094 15.097656 L 12.980469 16.609375 L 11.34375 15.746094 L 10.144531 15.3125 L 8.398438 15.097656 L 7.308594 15.207031 L 6.21875 15.53125 L 5.019531 16.285156 L 4.363281 16.929688 L 3.710938 18.117188 L 3.273438 18.980469 L 4.253906 19.304688 L 5.34375 18.441406 L 6.328125 18.011719 L 7.199219 17.902344 L 8.183594 18.011719 L 9.273438 18.226562 L 10.691406 19.089844 L 11.5625 19.84375 L 12.21875 20.488281 L 13.089844 22.324219 L 13.308594 24.371094 L 13.417969 26.421875 L 11.453125 25.449219 L 10.253906 25.019531 L 8.183594 24.804688 L 6.65625 25.234375 L 5.890625 25.882812 L 4.910156 27.070312 L 4.253906 28.148438 L 4.144531 28.363281 L 5.238281 28.902344 L 6.21875 28.039062 L 7.089844 27.609375 L 7.417969 27.5 L 8.074219 27.609375 L 9.054688 27.929688 L 10.035156 28.6875 L 10.691406 29.65625 L 11.128906 31.058594 L 10.800781 32.785156 L 9.816406 34.511719 L 8.617188 36.234375 L 7.199219 37.851562 L 2.835938 41.734375 L 1.527344 42.8125 L 2.074219 43.351562 L 2.398438 43.785156 L 2.398438 44 L 4.035156 43.351562 L 7.199219 42.273438 L 10.035156 41.519531 L 13.199219 41.089844 L 14.507812 40.980469 L 17.5625 41.089844 L 20.617188 41.628906 L 23.890625 42.597656 L 26.945312 43.890625 L 34.472656 35.480469 L 38.183594 41.628906 L 39.382812 42.921875 L 40.800781 44 L 48 36.882812 Z M 23.890625 17.039062 L 31.089844 11.214844 L 36 16.714844 L 23.78125 25.128906 Z M 29.5625 38.929688 L 25.089844 37.097656 L 21.492188 36.449219 L 18.328125 36.128906 L 21.273438 33.863281 L 22.691406 32.03125 L 23.34375 29.441406 L 23.78125 26.746094 L 25.855469 26.851562 L 28.144531 27.824219 L 30.109375 29.765625 L 32.507812 32.351562 L 33.710938 34.292969 Z M 29.5625 38.929688 "/>
</g>
</svg>
